<svg width="211" height="229" viewBox="0 0 211 229" fill="none" xmlns="http://www.w3.org/2000/svg">
<g clip-path="url(#clip0_13_689)">
<path d="M147.872 100.274C160.553 100.274 170.832 89.9544 170.832 77.2239C170.832 64.4935 160.553 54.1735 147.872 54.1735C135.192 54.1735 124.912 64.4935 124.912 77.2239C124.912 89.9544 135.192 100.274 147.872 100.274Z" fill="#FF6584"/>
<path d="M210.852 94.4102C210.903 94.4009 210.941 94.3654 211 94.3745C210.974 94.2747 210.94 94.1771 210.899 94.0826C210.826 94.1827 210.752 94.2847 210.686 94.374L210.852 94.4102Z" fill="white"/>
<path d="M56.857 131.78C56.9911 136.809 57.8302 141.794 59.3495 146.588C59.3842 146.699 59.4206 146.809 59.457 146.92H68.7587C68.7488 146.82 68.7389 146.709 68.7289 146.588C68.1087 139.43 64.5329 95.8626 68.8083 88.4121C68.4345 89.0165 56.1359 109.035 56.857 131.78Z" fill="#E6E6E6"/>
<path d="M57.555 146.588C57.6327 146.699 57.7138 146.811 57.7965 146.92H64.7744C64.7215 146.825 64.6603 146.714 64.5892 146.588C63.4364 144.499 60.0243 138.254 56.857 131.78C53.4533 124.823 50.3306 117.601 50.5936 114.988C50.5126 115.577 48.1574 133.547 57.555 146.588Z" fill="#E6E6E6"/>
<path d="M130.065 147.786C129.949 152.17 129.217 156.516 127.892 160.695C127.862 160.792 127.83 160.888 127.799 160.985H119.689C119.698 160.898 119.707 160.801 119.715 160.695C120.256 154.455 123.373 116.472 119.646 109.977C119.972 110.504 130.694 127.956 130.065 147.786Z" fill="#E6E6E6"/>
<path d="M129.457 160.695C129.389 160.792 129.319 160.889 129.246 160.985H123.163C123.209 160.902 123.262 160.805 123.324 160.695C124.329 158.874 127.304 153.43 130.065 147.785C133.033 141.72 135.755 135.424 135.526 133.146C135.597 133.66 137.65 149.326 129.457 160.695Z" fill="#E6E6E6"/>
<path d="M37.3447 18.7097L41.1264 15.6731C38.1886 15.3477 36.9815 16.9562 36.4874 18.2294C34.1923 17.2726 31.6937 18.5266 31.6937 18.5266L39.2602 21.2844C38.8785 20.2608 38.214 19.3676 37.3447 18.7097Z" fill="#3F3D56"/>
<path d="M151.247 3.07913L155.029 0.0425264C152.091 -0.28288 150.884 1.32569 150.39 2.59889C148.095 1.64209 145.596 2.89603 145.596 2.89603L153.163 5.6538C152.781 4.6302 152.117 3.73708 151.247 3.07913Z" fill="#3F3D56"/>
<path d="M206.889 123.163C206.889 125.679 206.801 128.174 206.627 130.649C205.28 150.175 198.536 168.937 187.153 184.827C185.665 186.912 184.103 188.938 182.467 190.905C178.227 196.01 173.52 200.705 168.407 204.927L145.993 191.723L132.593 160.323C132.593 160.323 152.587 119.679 206.853 120.416C206.876 121.328 206.888 122.244 206.889 123.163Z" fill="#3F3D56"/>
<path d="M206.627 130.649C205.596 145.24 201.563 159.459 194.784 172.407C188.005 185.355 178.626 196.752 167.239 205.878L146.417 193.613L134.533 165.764C134.533 165.764 153.79 126.62 206.627 130.649Z" fill="#7FB77E"/>
<path d="M187.153 184.827C185.665 186.912 184.103 188.938 182.467 190.905C171.503 204.13 157.493 214.474 141.65 221.039C138.443 222.367 135.159 223.538 131.8 224.552C107.547 231.027 81.8529 229.39 58.6103 219.887C35.6236 209.587 17.048 191.396 6.21988 168.582C4.76468 165.51 3.45608 162.361 2.29408 159.134C22.5601 144.229 62.4941 122.887 106.017 143.626C118.057 149.362 128.807 154.591 138.268 159.313C162.275 171.26 178.254 179.873 187.153 184.827Z" fill="#3F3D56"/>
<path d="M182.467 190.905C171.133 204.542 156.565 215.099 140.103 221.603C123.642 228.108 105.815 230.352 88.2632 228.129C70.7114 225.906 53.9984 219.287 39.6617 208.881C25.325 198.476 13.825 184.618 6.21988 168.582C23.1455 155.144 62.1836 130.996 105.025 151.407C116.042 156.657 125.878 161.443 134.533 165.764C159.763 178.318 175.304 186.85 182.467 190.905Z" fill="#7FB77E"/>
<path d="M152.594 215.744C149.049 217.717 145.396 219.485 141.65 221.039C128.906 226.312 115.252 229.017 101.468 229C85.1562 228.994 69.0685 225.191 54.4678 217.89C39.8671 210.59 27.151 199.99 17.3182 186.925C42.4964 184.259 112.094 180.665 152.594 215.744Z" fill="#3F3D56"/>
<path d="M141.65 221.039C121.888 229.198 100.124 231.141 79.2376 226.612C58.3511 222.084 39.3259 211.296 24.6783 195.677C33.8363 194.327 105.736 185.051 141.65 221.039Z" fill="#7FB77E"/>
<path d="M189.206 64.4715V64.4748C113.93 8.59843 27.6857 47.9271 27.0195 48.2291V48.2258C36.7949 38.413 48.4025 30.6325 61.1775 25.3301C73.9524 20.0277 87.6438 17.3074 101.468 17.3252C138.064 17.3252 170.305 36.048 189.206 64.4715Z" fill="#E6E6E6"/>
<path d="M33.0571 125.214C45.7913 122.909 52.3168 99.8941 47.6321 73.8086C42.9475 47.723 28.8267 28.445 16.0925 30.75C3.35822 33.0551 -3.16724 56.0702 1.51742 82.1558C6.20208 108.241 20.3229 127.519 33.0571 125.214Z" fill="#3F3D56"/>
<path d="M36.3297 155.679C35.5748 98.3821 16.4795 44.6125 16.2868 44.0765L14.5453 44.7071C14.7371 45.2405 33.7276 98.7284 34.4786 155.704L36.3297 155.679Z" fill="#7FB77E"/>
<path d="M2.45096 71.5003L1.8812 73.269L24.742 80.6914L25.3118 78.9227L2.45096 71.5003Z" fill="#7FB77E"/>
<path d="M45.4541 69.5079L26.6183 84.4843L27.7679 85.9415L46.6037 70.9652L45.4541 69.5079Z" fill="#7FB77E"/>
<path d="M94.288 116.954C108.29 116.954 119.641 93.7024 119.641 65.0203C119.641 36.3382 108.29 13.0867 94.288 13.0867C80.2863 13.0867 68.9356 36.3382 68.9356 65.0203C68.9356 93.7024 80.2863 116.954 94.288 116.954Z" fill="#3F3D56"/>
<path d="M91.9469 150.027C102.101 88.865 92.0491 27.9237 91.9464 27.3158L89.9713 27.6517C90.0735 28.2567 100.067 88.8778 89.9708 149.697L91.9469 150.027Z" fill="#7FB77E"/>
<path d="M71.9675 53.853L71.0225 55.6268L93.948 67.9377L94.893 66.1639L71.9675 53.853Z" fill="#7FB77E"/>
<path d="M118.144 60.0199L95.2209 72.3378L96.1664 74.1113L119.089 61.7934L118.144 60.0199Z" fill="#7FB77E"/>
<path d="M204.412 100.248C195.11 95.0054 185.391 90.5446 175.356 86.9116C119.868 66.7538 64.845 74.5228 43.3081 103.372C60.0687 68.0297 119.874 56.9168 180.226 78.8407C187.25 81.3902 194.125 84.3385 200.816 87.6713C202.273 91.7846 203.474 95.9851 204.412 100.248Z" fill="#E6E6E6"/>
<path d="M129.471 43.3764L133.253 40.3398C130.315 40.0144 129.108 41.623 128.614 42.8962C126.318 41.9394 123.82 43.1933 123.82 43.1933L131.386 45.9511C131.005 44.9275 130.34 44.0344 129.471 43.3764Z" fill="#3F3D56"/>
</g>
<defs>
<clipPath id="clip0_13_689">
<rect width="211" height="229" fill="white"/>
</clipPath>
</defs>
</svg>
