<svg width="235" height="173" viewBox="0 0 235 173" fill="none" xmlns="http://www.w3.org/2000/svg">
<g clip-path="url(#clip0_13_553)">
<path d="M100.179 117.312C100.179 117.312 131.388 113.579 142.311 107.668C153.234 101.757 234.376 98.957 234.376 117.312C234.376 135.667 141.062 143.756 141.062 143.756L92.0651 140.956L100.179 117.312Z" fill="#FBBEBE"/>
<path opacity="0.1" d="M100.179 117.312C100.179 117.312 131.388 113.579 142.311 107.668C153.234 101.757 234.376 98.957 234.376 117.312C234.376 135.667 141.062 143.756 141.062 143.756L92.0651 140.956L100.179 117.312Z" fill="black"/>
<path d="M109.23 113.89L102.676 132.867L0 134.112V106.112C0 106.112 39.3227 97.0903 70.5312 116.379C70.5312 116.379 107.357 112.023 109.23 113.89Z" fill="#7FB77E"/>
<path opacity="0.1" d="M109.23 113.859L102.676 132.837L0 134.081V106.082C0 106.082 39.3227 97.0598 70.5312 116.348C70.5312 116.348 107.357 111.993 109.23 113.859Z" fill="black"/>
<path d="M226.62 105.957C226.62 107.017 224.234 107.804 224 108.827C223.767 109.842 225.184 111.384 224.736 112.353C224.272 113.344 223.725 114.293 223.099 115.191C222.512 116.03 220.697 115.907 219.953 116.693C219.224 117.408 218.452 118.077 217.642 118.697C216.852 119.351 215.783 119.489 214.885 120.091C214.031 120.664 214.134 122.766 213.19 123.288C212.288 123.786 210.906 123.385 209.928 123.833C208.988 124.263 208.492 125.819 207.488 126.2C206.519 126.566 205.32 126.409 204.296 126.726C203.305 127.034 202.196 126.984 201.157 127.243C200.149 127.494 199.379 129.001 198.329 129.205C197.307 129.403 196.109 128.875 195.052 129.025C194.02 129.171 192.82 127.869 191.758 127.967C190.718 128.064 189.739 128.667 188.675 128.715C187.631 128.763 186.599 129.221 185.535 129.221C184.47 129.221 183.371 130.217 182.328 130.169C181.264 130.12 180.3 128.611 179.261 128.515C178.199 128.416 176.932 129.993 175.9 129.846C174.843 129.696 174.006 128.153 172.984 127.955C171.934 127.752 170.579 128.855 169.57 128.603C168.531 128.344 167.915 126.549 166.923 126.242C165.899 125.924 164.63 126.354 163.661 125.988C162.656 125.607 161.433 125.668 160.493 125.238C159.514 124.79 158.812 123.729 157.909 123.231C156.965 122.709 156.529 121.415 155.676 120.842C154.778 120.239 153.41 120.316 152.62 119.662C151.787 118.97 150.225 118.934 149.521 118.191C148.777 117.404 148.476 116.084 147.889 115.245C147.27 114.362 148.484 112.495 148.052 111.561C147.604 110.592 145.73 110.199 145.497 109.185C145.258 108.125 145.134 107.043 145.13 105.957C145.13 104.897 146.733 104.086 146.968 103.063C147.2 102.049 146.02 100.592 146.469 99.623C146.901 98.6893 146.846 97.2542 147.465 96.3709C148.052 95.5323 149.518 95.2036 150.262 94.4173C150.966 93.6738 152.225 93.4663 153.059 92.7753C153.848 92.1207 153.748 90.1467 154.645 89.5441C155.499 88.9712 156.691 88.7098 157.635 88.188C158.538 87.6895 159.815 87.7734 160.794 87.3253C161.733 86.8952 163.205 87.7427 164.209 87.3623C165.178 86.9954 165.964 86.1935 166.988 85.8757C167.979 85.5681 168.445 83.2224 169.483 82.9635C170.492 82.712 171.733 83.1294 172.782 82.9262C173.804 82.7282 175.18 84.5789 176.237 84.429C177.269 84.2825 178.041 81.812 179.103 81.7134C180.142 81.6169 181.314 82.8965 182.378 82.8478C183.422 82.8001 184.47 83.5498 185.535 83.5498C186.599 83.5498 187.66 82.5208 188.703 82.5686C189.767 82.6173 190.706 83.9771 191.745 84.0735C192.807 84.1721 194.111 82.1038 195.143 82.2502C196.2 82.4002 197.017 83.999 198.039 84.197C199.088 84.4002 200.403 83.4076 201.412 83.6591C202.45 83.9181 203.075 85.6174 204.067 85.9251C205.091 86.2429 205.722 87.4418 206.69 87.8087C207.695 88.1892 209.561 86.4088 210.501 86.8391C211.48 87.2872 212.325 88.0628 213.227 88.5614C214.172 89.0832 215.673 88.8208 216.527 89.3938C217.425 89.9964 217.645 91.6141 218.435 92.2688C219.269 92.9599 220.644 93.168 221.347 93.9116C222.091 94.6981 222.195 96.1072 222.782 96.9459C223.401 97.8291 223.381 99.0528 223.813 99.9864C224.262 100.955 225.458 101.688 225.691 102.702C225.925 103.725 226.62 104.897 226.62 105.957Z" fill="#3F3D56"/>
<path d="M114.223 125.401C114.223 125.401 149.489 107.357 172.271 114.201C195.053 121.045 226.886 109.223 230.631 113.268C234.376 117.312 239.681 160.867 194.741 163.356C149.801 165.845 111.414 155.889 111.414 155.889L114.223 125.401Z" fill="#FBBEBE"/>
<path d="M105.918 123.479C105.918 123.479 119.841 122.601 119.216 127.579C118.592 132.556 117.968 171.133 114.223 172.067C110.478 173 80.83 173 68.6587 173H0V113.357C0 113.357 48.6853 110.468 73.0279 122.601C73.0279 122.601 102.294 122.18 105.918 123.479Z" fill="#7FB77E"/>
<path d="M171.141 30.1895C169.811 30.2644 168.528 30.7072 167.436 31.4683C166.344 32.2295 165.486 33.2788 164.959 34.4986C163.413 38.2237 165.404 42.5994 168.392 45.3158C171.38 48.0322 175.218 49.5849 178.705 51.6257C183.39 54.367 187.599 58.1723 189.943 63.0569C192.286 67.9416 192.536 73.9923 189.781 78.6588C187.224 82.9902 182.574 85.5825 178.139 87.9732" stroke="#3F3D56" stroke-miterlimit="10"/>
<path d="M183.625 7.47881C182.294 7.55371 181.011 7.99655 179.919 8.75767C178.827 9.51878 177.97 10.5681 177.442 11.7879C175.896 15.513 177.887 19.8887 180.875 22.6051C183.863 25.3215 187.701 26.8742 191.189 28.9151C195.873 31.6563 200.082 35.4616 202.426 40.3463C204.77 45.2309 205.019 51.2816 202.264 55.9482C199.707 60.2795 195.057 62.8718 190.623 65.2626" stroke="#3F3D56" stroke-miterlimit="10"/>
<path d="M224.669 12.7021C223.571 11.9495 222.285 11.5167 220.954 11.4521C219.623 11.3876 218.3 11.6938 217.134 12.3366C213.624 14.3387 212.511 19.0134 213.206 22.9848C213.9 26.9562 215.982 30.5263 217.486 34.2683C219.507 39.2944 220.498 44.872 219.352 50.1647C218.205 55.4575 214.687 60.394 209.643 62.4027C204.961 64.267 199.692 63.4793 194.717 62.6635" stroke="#3F3D56" stroke-miterlimit="10"/>
<path d="M188.499 59.6511C192.636 59.6511 195.989 58.0274 195.989 56.0245C195.989 54.0215 192.636 52.3979 188.499 52.3979C184.363 52.3979 181.009 54.0215 181.009 56.0245C181.009 58.0274 184.363 59.6511 188.499 59.6511Z" fill="#57B894"/>
<path d="M187.563 59.0289C191.7 59.0289 195.053 57.4052 195.053 55.4023C195.053 53.3993 191.7 51.7757 187.563 51.7757C183.426 51.7757 180.073 53.3993 180.073 55.4023C180.073 57.4052 183.426 59.0289 187.563 59.0289Z" stroke="#3F3D56" stroke-miterlimit="10"/>
<path d="M204.728 56.54C208.864 56.54 212.218 54.9163 212.218 52.9134C212.218 50.9105 208.864 49.2868 204.728 49.2868C200.591 49.2868 197.238 50.9105 197.238 52.9134C197.238 54.9163 200.591 56.54 204.728 56.54Z" fill="#57B894"/>
<path d="M203.791 55.9178C207.928 55.9178 211.281 54.2941 211.281 52.2912C211.281 50.2883 207.928 48.6646 203.791 48.6646C199.655 48.6646 196.301 50.2883 196.301 52.2912C196.301 54.2941 199.655 55.9178 203.791 55.9178Z" stroke="#3F3D56" stroke-miterlimit="10"/>
<path d="M207.224 70.2286C211.361 70.2286 214.714 68.605 214.714 66.602C214.714 64.5991 211.361 62.9754 207.224 62.9754C203.088 62.9754 199.734 64.5991 199.734 66.602C199.734 68.605 203.088 70.2286 207.224 70.2286Z" fill="#57B894"/>
<path d="M206.288 69.6064C210.425 69.6064 213.778 67.9827 213.778 65.9798C213.778 63.9769 210.425 62.3532 206.288 62.3532C202.151 62.3532 198.798 63.9769 198.798 65.9798C198.798 67.9827 202.151 69.6064 206.288 69.6064Z" stroke="#3F3D56" stroke-miterlimit="10"/>
<path d="M205.664 36.0071C209.801 36.0071 213.154 34.3834 213.154 32.3805C213.154 30.3776 209.801 28.7539 205.664 28.7539C201.527 28.7539 198.174 30.3776 198.174 32.3805C198.174 34.3834 201.527 36.0071 205.664 36.0071Z" fill="#57B894"/>
<path d="M204.728 35.3849C208.864 35.3849 212.218 33.7612 212.218 31.7583C212.218 29.7554 208.864 28.1317 204.728 28.1317C200.591 28.1317 197.238 29.7554 197.238 31.7583C197.238 33.7612 200.591 35.3849 204.728 35.3849Z" stroke="#3F3D56" stroke-miterlimit="10"/>
<path d="M186.939 33.8293C191.076 33.8293 194.429 32.2057 194.429 30.2027C194.429 28.1998 191.076 26.5761 186.939 26.5761C182.802 26.5761 179.449 28.1998 179.449 30.2027C179.449 32.2057 182.802 33.8293 186.939 33.8293Z" fill="#57B894"/>
<path d="M186.003 33.2071C190.139 33.2071 193.493 31.5834 193.493 29.5805C193.493 27.5776 190.139 25.9539 186.003 25.9539C181.866 25.9539 178.513 27.5776 178.513 29.5805C178.513 31.5834 181.866 33.2071 186.003 33.2071Z" stroke="#3F3D56" stroke-miterlimit="10"/>
<path d="M195.365 26.0517C199.502 26.0517 202.855 24.428 202.855 22.4251C202.855 20.4222 199.502 18.7985 195.365 18.7985C191.229 18.7985 187.875 20.4222 187.875 22.4251C187.875 24.428 191.229 26.0517 195.365 26.0517Z" fill="#57B894"/>
<path d="M194.429 25.4295C198.566 25.4295 201.919 23.8058 201.919 21.8029C201.919 19.8 198.566 18.1763 194.429 18.1763C190.292 18.1763 186.939 19.8 186.939 21.8029C186.939 23.8058 190.292 25.4295 194.429 25.4295Z" stroke="#3F3D56" stroke-miterlimit="10"/>
<path d="M213.778 27.6072C217.915 27.6072 221.268 25.9835 221.268 23.9806C221.268 21.9777 217.915 20.354 213.778 20.354C209.642 20.354 206.288 21.9777 206.288 23.9806C206.288 25.9835 209.642 27.6072 213.778 27.6072Z" fill="#57B894"/>
<path d="M212.842 26.985C216.979 26.985 220.332 25.3613 220.332 23.3584C220.332 21.3555 216.979 19.7318 212.842 19.7318C208.705 19.7318 205.352 21.3555 205.352 23.3584C205.352 25.3613 208.705 26.985 212.842 26.985Z" stroke="#3F3D56" stroke-miterlimit="10"/>
<path d="M227.51 37.8737C231.647 37.8737 235 36.25 235 34.2471C235 32.2442 231.647 30.6205 227.51 30.6205C223.373 30.6205 220.02 32.2442 220.02 34.2471C220.02 36.25 223.373 37.8737 227.51 37.8737Z" fill="#57B894"/>
<path d="M226.574 37.2515C230.71 37.2515 234.064 35.6278 234.064 33.6249C234.064 31.622 230.71 29.9983 226.574 29.9983C222.437 29.9983 219.084 31.622 219.084 33.6249C219.084 35.6278 222.437 37.2515 226.574 37.2515Z" stroke="#3F3D56" stroke-miterlimit="10"/>
<path d="M179.137 19.8296C183.273 19.8296 186.627 18.2059 186.627 16.203C186.627 14.2001 183.273 12.5764 179.137 12.5764C175 12.5764 171.647 14.2001 171.647 16.203C171.647 18.2059 175 19.8296 179.137 19.8296Z" fill="#57B894"/>
<path d="M178.2 19.2074C182.337 19.2074 185.691 17.5837 185.691 15.5808C185.691 13.5779 182.337 11.9542 178.2 11.9542C174.064 11.9542 170.71 13.5779 170.71 15.5808C170.71 17.5837 174.064 19.2074 178.2 19.2074Z" stroke="#3F3D56" stroke-miterlimit="10"/>
<path d="M183.818 8.00761C187.955 8.00761 191.308 6.38392 191.308 4.38101C191.308 2.37809 187.955 0.75441 183.818 0.75441C179.681 0.75441 176.328 2.37809 176.328 4.38101C176.328 6.38392 179.681 8.00761 183.818 8.00761Z" fill="#57B894"/>
<path d="M182.882 7.3854C187.019 7.3854 190.372 5.76171 190.372 3.7588C190.372 1.75589 187.019 0.132202 182.882 0.132202C178.745 0.132202 175.392 1.75589 175.392 3.7588C175.392 5.76171 178.745 7.3854 182.882 7.3854Z" stroke="#3F3D56" stroke-miterlimit="10"/>
<path d="M227.198 16.7186C231.335 16.7186 234.688 15.0949 234.688 13.092C234.688 11.089 231.335 9.46535 227.198 9.46535C223.061 9.46535 219.708 11.089 219.708 13.092C219.708 15.0949 223.061 16.7186 227.198 16.7186Z" fill="#57B894"/>
<path d="M226.262 16.0963C230.398 16.0963 233.752 14.4727 233.752 12.4697C233.752 10.4668 230.398 8.84315 226.262 8.84315C222.125 8.84315 218.772 10.4668 218.772 12.4697C218.772 14.4727 222.125 16.0963 226.262 16.0963Z" stroke="#3F3D56" stroke-miterlimit="10"/>
<path d="M158.227 45.3402C162.364 45.3402 165.717 43.7165 165.717 41.7136C165.717 39.7107 162.364 38.087 158.227 38.087C154.09 38.087 150.737 39.7107 150.737 41.7136C150.737 43.7165 154.09 45.3402 158.227 45.3402Z" fill="#57B894"/>
<path d="M157.291 44.718C161.427 44.718 164.781 43.0943 164.781 41.0914C164.781 39.0885 161.427 37.4648 157.291 37.4648C153.154 37.4648 149.801 39.0885 149.801 41.0914C149.801 43.0943 153.154 44.718 157.291 44.718Z" stroke="#3F3D56" stroke-miterlimit="10"/>
<path d="M184.13 43.4736C188.267 43.4736 191.62 41.8499 191.62 39.847C191.62 37.8441 188.267 36.2204 184.13 36.2204C179.994 36.2204 176.64 37.8441 176.64 39.847C176.64 41.8499 179.994 43.4736 184.13 43.4736Z" fill="#57B894"/>
<path d="M183.194 42.8514C187.331 42.8514 190.684 41.2277 190.684 39.2248C190.684 37.2219 187.331 35.5982 183.194 35.5982C179.057 35.5982 175.704 37.2219 175.704 39.2248C175.704 41.2277 179.057 42.8514 183.194 42.8514Z" stroke="#3F3D56" stroke-miterlimit="10"/>
<path d="M218.147 46.2735C222.284 46.2735 225.637 44.6499 225.637 42.6469C225.637 40.644 222.284 39.0203 218.147 39.0203C214.011 39.0203 210.657 40.644 210.657 42.6469C210.657 44.6499 214.011 46.2735 218.147 46.2735Z" fill="#57B894"/>
<path d="M217.211 45.6513C221.348 45.6513 224.701 44.0276 224.701 42.0247C224.701 40.0218 221.348 38.3981 217.211 38.3981C213.074 38.3981 209.721 40.0218 209.721 42.0247C209.721 44.0276 213.074 45.6513 217.211 45.6513Z" stroke="#3F3D56" stroke-miterlimit="10"/>
<path d="M200.046 47.518C204.183 47.518 207.536 45.8943 207.536 43.8914C207.536 41.8885 204.183 40.2648 200.046 40.2648C195.91 40.2648 192.556 41.8885 192.556 43.8914C192.556 45.8943 195.91 47.518 200.046 47.518Z" fill="#57B894"/>
<path d="M199.11 46.8958C203.247 46.8958 206.6 45.2721 206.6 43.2692C206.6 41.2662 203.247 39.6426 199.11 39.6426C194.974 39.6426 191.62 41.2662 191.62 43.2692C191.62 45.2721 194.974 46.8958 199.11 46.8958Z" stroke="#3F3D56" stroke-miterlimit="10"/>
<path d="M201.295 16.4074C205.431 16.4074 208.785 14.7838 208.785 12.7808C208.785 10.7779 205.431 9.15425 201.295 9.15425C197.158 9.15425 193.805 10.7779 193.805 12.7808C193.805 14.7838 197.158 16.4074 201.295 16.4074Z" fill="#57B894"/>
<path d="M200.359 15.7852C204.495 15.7852 207.849 14.1616 207.849 12.1586C207.849 10.1557 204.495 8.53204 200.359 8.53204C196.222 8.53204 192.869 10.1557 192.869 12.1586C192.869 14.1616 196.222 15.7852 200.359 15.7852Z" stroke="#3F3D56" stroke-miterlimit="10"/>
<path d="M169.15 35.696C173.287 35.696 176.64 34.0723 176.64 32.0694C176.64 30.0665 173.287 28.4428 169.15 28.4428C165.013 28.4428 161.66 30.0665 161.66 32.0694C161.66 34.0723 165.013 35.696 169.15 35.696Z" fill="#57B894"/>
<path d="M168.214 35.0738C172.35 35.0738 175.704 33.4501 175.704 31.4472C175.704 29.4442 172.35 27.8206 168.214 27.8206C164.077 27.8206 160.724 29.4442 160.724 31.4472C160.724 33.4501 164.077 35.0738 168.214 35.0738Z" stroke="#3F3D56" stroke-miterlimit="10"/>
<path d="M173.519 49.6957C177.656 49.6957 181.009 48.072 181.009 46.0691C181.009 44.0662 177.656 42.4425 173.519 42.4425C169.383 42.4425 166.029 44.0662 166.029 46.0691C166.029 48.072 169.383 49.6957 173.519 49.6957Z" fill="#57B894"/>
<path d="M172.583 49.0735C176.72 49.0735 180.073 47.4498 180.073 45.4469C180.073 43.444 176.72 41.8203 172.583 41.8203C168.446 41.8203 165.093 43.444 165.093 45.4469C165.093 47.4498 168.446 49.0735 172.583 49.0735Z" stroke="#3F3D56" stroke-miterlimit="10"/>
<g opacity="0.3">
<path d="M173.694 70.8316C174.751 68.9458 174.944 67.047 174.125 66.5906C173.305 66.1342 171.784 67.2929 170.727 69.1787C169.669 71.0645 169.477 72.9633 170.296 73.4197C171.115 73.8761 172.636 72.7174 173.694 70.8316Z" fill="#57B894"/>
<path d="M173.2 71.1166C174.257 69.2308 174.45 67.3321 173.631 66.8756C172.812 66.4192 171.29 67.5779 170.233 69.4637C169.176 71.3495 168.983 73.2483 169.802 73.7047C170.621 74.1612 172.142 73.0024 173.2 71.1166Z" stroke="#3F3D56" stroke-miterlimit="10"/>
</g>
<g opacity="0.3">
<path d="M212.735 79.872C213.361 79.1748 212.559 77.4417 210.944 76.001C209.329 74.5603 207.513 73.9575 206.887 74.6546C206.261 75.3518 207.063 77.0849 208.678 78.5256C210.293 79.9663 212.109 80.5691 212.735 79.872Z" fill="#57B894"/>
<path d="M212.564 79.3293C213.19 78.6322 212.388 76.8991 210.773 75.4584C209.158 74.0176 207.342 73.4148 206.716 74.112C206.09 74.8091 206.892 76.5422 208.507 77.9829C210.122 79.4237 211.938 80.0264 212.564 79.3293Z" stroke="#3F3D56" stroke-miterlimit="10"/>
</g>
<g opacity="0.3">
<path d="M177.781 60.2723C178.407 59.5752 177.606 57.8421 175.991 56.4014C174.376 54.9607 172.559 54.3579 171.933 55.055C171.308 55.7522 172.109 57.4852 173.724 58.926C175.339 60.3667 177.155 60.9695 177.781 60.2723Z" fill="#57B894"/>
<path d="M177.61 59.7297C178.236 59.0325 177.435 57.2995 175.82 55.8587C174.205 54.418 172.388 53.8152 171.762 54.5124C171.137 55.2095 171.938 56.9426 173.553 58.3833C175.168 59.824 176.984 60.4268 177.61 59.7297Z" stroke="#3F3D56" stroke-miterlimit="10"/>
</g>
</g>
<defs>
<clipPath id="clip0_13_553">
<rect width="235" height="173" fill="white"/>
</clipPath>
</defs>
</svg>
