<svg width="267" height="137" viewBox="0 0 267 137" fill="none" xmlns="http://www.w3.org/2000/svg">
<g clip-path="url(#clip0_20_440)">
<path d="M133.01 33.8098L133.003 33.8565L132.984 33.9914L131.02 48.0966L118.997 52.5126L118.809 52.4225L112.077 49.2223L108.597 35.8532L108.358 34.9355L108.431 34.9076L123.322 29.3071L133.001 33.8044L133.01 33.8098Z" fill="#7FB77E"/>
<path d="M118.809 52.4225L112.077 49.2223L108.358 34.9355L108.431 34.9076L118.132 39.0049L118.809 52.4225Z" fill="#7FB77E"/>
<path opacity="0.2" d="M118.977 52.2594L113.857 42.4369L114.515 39.6522L111.418 36.0013L111.154 36.2256L114.138 39.7429L111.909 49.1823L112.246 49.2623L113.736 42.9522L118.671 52.4196L118.977 52.2594Z" fill="black"/>
<path d="M133.01 33.9828L132.984 33.9914L118.132 39.1782L108.597 35.8532L108.358 34.9355L108.431 34.9076L123.322 29.3071L133.001 33.8044L133.003 33.8565L133.01 33.9828Z" fill="#3F3D56"/>
<path d="M118.392 39.4379L115.364 37.1001L116.056 34.5025L124.706 31.3851L130.588 31.7315L132.923 33.7231L133.096 34.2425L118.392 39.4379Z" fill="#7FB77E"/>
<path d="M108.531 34.9355L115.364 34.6755L119.066 33.4179L124.837 31.3852L125.917 29.8268L123.223 29.3441L108.531 34.9355Z" fill="#7FB77E"/>
<path d="M122.145 32.1487L118.582 33.4004L118.697 33.7271L122.26 32.4754L122.145 32.1487Z" fill="#CCCCCC"/>
<path d="M75.2158 11.8963L73.5454 20.2564L81.3401 26.1088L84.9593 15.2403L75.2158 11.8963Z" fill="#9F616A"/>
<path d="M81.4794 19.5599C85.6306 19.5599 88.9957 16.1911 88.9957 12.0356C88.9957 7.87999 85.6306 4.51125 81.4794 4.51125C77.3282 4.51125 73.963 7.87999 73.963 12.0356C73.963 16.1911 77.3282 19.5599 81.4794 19.5599Z" fill="#9F616A"/>
<path d="M65.194 69.046C65.2283 71.4736 75.7899 98.4909 74.3235 102.009C72.0119 104.374 67.0397 116.964 64.9154 120.323C64.6372 120.323 63.2453 124.503 63.2453 124.503C63.2453 124.503 66.5859 129.798 70.2049 127.568C74.7554 116.854 86.1517 110.879 86.3531 96.9148C86.9031 101.326 88.5269 129.641 88.5269 129.641C88.5269 129.641 88.2154 129.773 95.2266 130.446C96.3151 114.012 100.763 86.0533 90.8048 68.4884C87.743 67.0953 65.194 69.046 65.194 69.046Z" fill="#2F2E41"/>
<path d="M88.5264 129.09C88.201 129.716 85.867 135.5 87.9909 136.079C90.4403 136.748 92.8147 135.811 92.8147 135.811C92.8147 135.811 97.1025 137.153 99.7266 135.448C100.951 134.222 100.673 133.107 100.088 132.299C99.7915 131.901 99.4113 131.573 98.9744 131.337C98.5375 131.101 98.0545 130.964 97.559 130.934C96.2274 130.839 95.8045 130.592 95.652 129.981C95.4293 129.09 88.5264 129.09 88.5264 129.09Z" fill="#2F2E41"/>
<path d="M65.6206 124.04C65.6206 124.04 59.6374 125.931 60.897 128.138C61.7151 129.505 62.9096 130.608 64.3375 131.314C64.3375 131.314 65.5854 136.463 69.0493 136.463C70.7814 136.463 71.3718 135.478 71.5292 134.493C71.6004 134.002 71.5636 133.5 71.4211 133.024C71.2787 132.548 71.0342 132.109 70.7048 131.738C69.8303 130.728 69.7058 130.254 70.0293 129.714C70.5017 128.926 65.6206 124.04 65.6206 124.04Z" fill="#2F2E41"/>
<path d="M92.1983 69.8618C92.1983 69.8618 91.0835 72.0912 86.6295 71.2542C82.1756 70.4198 64.6384 71.2542 64.6384 71.2542C64.6384 71.2542 65.6112 51.3296 63.3842 39.3459C61.1572 27.3622 69.9258 20.5346 69.9258 20.5346L72.7102 17.7473C75.4946 17.471 81.3743 26.1201 81.3743 26.1201C83.3092 26.4447 85.1154 34.6779 86.6563 42.4686C86.7475 42.9139 86.8332 43.3539 86.919 43.7938C87.6291 47.4262 88.618 51.4691 89.2103 55.0988C89.2532 55.3564 89.2934 55.6112 89.3309 55.8661C90.0349 60.5795 90.9921 65.2515 92.1983 69.8618Z" fill="#E6E6E6"/>
<path d="M72.6862 7.35046C72.6862 7.35046 71.2809 4.25553 74.9347 2.84875C74.9347 2.84875 78.0264 -2.21569 84.2097 1.1606C84.2097 1.1606 88.4256 2.84874 88.4256 7.35046C88.4256 11.8522 89.8309 12.6963 89.8309 12.6963C89.8309 12.6963 87.7381 10.547 87.176 8.85889C86.6139 7.17076 82.2423 6.78776 80.5559 8.47591C78.8696 10.1641 74.6537 9.88269 74.6537 9.88269L74.9347 16.0726C74.9347 16.0726 73.5294 12.4149 72.9673 12.4149C72.4052 12.4149 71.843 7.35046 72.6862 7.35046Z" fill="#2F2E41"/>
<path opacity="0.2" d="M89.2103 55.0988C82.5695 51.4852 71.8125 43.5604 68.342 39.2734C63.7675 33.6263 68.7574 29.334 68.7574 29.334C74.4146 25.7606 81.1787 38.0206 81.1787 38.0206L86.6563 42.4686C86.7475 42.9139 86.8332 43.3539 86.919 43.7938C87.6292 47.4262 88.618 51.4691 89.2103 55.0988Z" fill="black"/>
<path d="M109.034 50.9345C109.034 50.9345 118.907 54.9467 120.532 50.4365C122.157 45.9263 112.737 46.0037 112.737 46.0037L109.039 46.5282L109.034 50.9345Z" fill="#9F616A"/>
<path d="M67.492 27.4986C67.492 27.4986 62.5044 31.7935 67.0757 37.4387C71.647 43.084 92.6555 55.1459 92.6555 55.1459L106.34 51.4426L110.213 52.152L110.943 44.8736L105.238 45.4311L90.7551 42.3442L81.5202 34.843C81.5202 34.843 73.1477 23.9272 67.492 27.4986Z" fill="#E6E6E6"/>
<path opacity="0.2" d="M85.6614 79.2374L86.534 99.6478L84.3215 79.2374H85.6614Z" fill="black"/>
<path d="M179.869 64.6371L171.948 66.4745C171.335 66.6166 170.691 66.514 170.152 66.1883C169.614 65.8627 169.224 65.3398 169.064 64.7307C168.972 64.3775 168.961 64.0079 169.031 63.6496C169.102 63.2913 169.253 62.9537 169.472 62.6621C169.692 62.3704 169.974 62.1323 170.299 61.9656C170.623 61.7989 170.981 61.7078 171.346 61.6993L178.997 61.5212L179.869 64.6371Z" fill="#FFB9B9"/>
<path d="M179.028 65.8008L177.269 60.5175L187.815 56.9112L185.016 32.234C190.056 33.1513 192.455 37.1186 192.23 42.2416L193.594 59.0806L179.028 65.8008Z" fill="#3F3D56"/>
<path d="M186.315 26.7933H203.546V18.2152C203.552 15.8985 202.645 13.6728 201.022 12.0212C200.23 11.2075 199.282 10.5612 198.236 10.1204C197.189 9.67965 196.065 9.45339 194.93 9.45501C192.663 9.4592 190.488 10.3565 188.876 11.9529C187.265 13.5493 186.346 15.7166 186.318 17.9861C186.316 18.0646 186.315 18.1392 186.315 18.2152L186.315 26.7933Z" fill="#2F2E41"/>
<path d="M210.751 127.598L205.243 126.966L198.651 82.4019L185.016 127.146L179.057 127.327L185.829 72.278L184.836 59.7134L201.721 54.3802C213.681 62.7377 213.433 92.2569 210.751 127.598Z" fill="#2F2E41"/>
<path d="M193.414 25.093C197.004 25.093 199.915 22.1791 199.915 18.5847C199.915 14.9903 197.004 12.0764 193.414 12.0764C189.823 12.0764 186.912 14.9903 186.912 18.5847C186.912 22.1791 189.823 25.093 193.414 25.093Z" fill="#FFB9B9"/>
<path d="M199.915 30.3357L188.899 33.2283C190.755 29.6551 191.349 26.3196 190.344 23.2851L198.109 22.0196C197.61 24.9212 198.258 27.9034 199.915 30.3357Z" fill="#FFB9B9"/>
<path d="M203.617 56.8208C197.439 60.7544 190.241 65.2732 184.926 60.8885L182.398 48.595C180.388 46.8033 181.279 41.2744 183.996 33.3936C184.168 32.8933 184.452 32.439 184.826 32.065C185.2 31.691 185.655 31.4071 186.154 31.2349L190.344 29.7934C192.2 31.3563 195.244 30.4241 198.832 28.3471L202.985 29.4318L204.791 42.9907C202.184 46.9007 202.64 52.107 203.617 56.8208Z" fill="#3F3D56"/>
<path d="M198.47 62.1061L190.549 63.9435C189.936 64.0856 189.292 63.983 188.754 63.6573C188.215 63.3317 187.825 62.8088 187.666 62.1997C187.573 61.8465 187.562 61.4768 187.632 61.1186C187.703 60.7603 187.854 60.4227 188.073 60.1311C188.293 59.8394 188.575 59.6013 188.9 59.4346C189.224 59.2679 189.582 59.1768 189.947 59.1683L197.599 58.9902L198.47 62.1061Z" fill="#FFB9B9"/>
<path d="M209.793 136.118C208.868 136.541 208.093 133.921 207.313 134.689C205.13 136.836 199.894 136.355 199.894 136.355C199.718 136.298 199.556 136.207 199.417 136.085C199.277 135.964 199.164 135.816 199.084 135.649C199.003 135.483 198.957 135.302 198.949 135.117C198.94 134.933 198.969 134.748 199.034 134.575C199.112 134.368 199.239 134.183 199.403 134.035C199.568 133.888 199.767 133.783 199.981 133.73L202.302 133.149L205.947 126.732L209.919 126.229L210.019 126.393C210.787 127.632 211.282 129.021 211.472 130.466C211.661 131.912 211.54 133.381 211.117 134.777C210.787 135.836 210.337 135.87 209.793 136.118Z" fill="#2F2E41"/>
<path d="M183.607 136.118C182.682 136.541 181.907 133.921 181.127 134.689C178.944 136.836 173.708 136.355 173.708 136.355C173.532 136.298 173.37 136.207 173.23 136.085C173.091 135.964 172.978 135.816 172.897 135.649C172.817 135.483 172.771 135.302 172.763 135.117C172.754 134.933 172.783 134.748 172.848 134.575C172.926 134.368 173.052 134.183 173.217 134.035C173.382 133.888 173.58 133.783 173.795 133.73L176.116 133.149L179.761 126.732L183.733 126.229L183.833 126.393C184.601 127.632 185.096 129.021 185.286 130.466C185.475 131.912 185.354 133.381 184.931 134.777C184.601 135.836 184.151 135.87 183.607 136.118Z" fill="#2F2E41"/>
<path d="M201.035 13.1562L199.398 18.3713L185.241 18.1195C185.29 16.2948 185.906 14.5309 187.005 13.074C188.103 11.6172 189.629 10.5402 191.368 9.99355C193.108 9.44687 194.975 9.45781 196.708 10.0248C198.441 10.5918 199.954 11.6866 201.035 13.1562Z" fill="#2F2E41"/>
<path d="M197.629 63.2698L195.87 57.9865L206.417 54.3802L202.427 29.1682C204.864 29.6118 207.058 30.9241 208.603 32.8623C210.148 34.8004 210.94 37.2333 210.831 39.7106L212.196 56.5496L197.629 63.2698Z" fill="#3F3D56"/>
<path d="M172.438 49.0262L161.469 51.3878L159.228 40.5837L163.356 35.0339L167.071 34.3254L171.2 38.5172L172.438 49.0262Z" fill="#CCCCCC"/>
<path d="M167.367 49.4973H160.761L159.86 45.0466L158.874 40.1695L160.348 38.0447L163.181 38.93L166.246 43.1822L167.015 47.5147L167.069 47.8233L167.367 49.4973Z" fill="#E6E6E6"/>
<path d="M178.454 46.9007L170.846 47.7862L172.203 38.104L175.269 35.329L177.923 35.9785L179.693 40.0522L178.454 46.9007Z" fill="#CCCCCC"/>
<path d="M179.455 41.1728L178.748 45.0708L176.449 58.3529L167.602 61.1886L167.297 61.0222L162.529 58.4119L159.847 45.0413L159.86 45.0466L166.954 47.9037L167.015 47.5147L167.058 47.233L167.602 43.7723L170.02 41.1728L178.099 39.2251L179.455 41.1728Z" fill="#E6E6E6"/>
<path d="M173.854 40.7607C174.896 40.7607 175.741 39.9148 175.741 38.8714C175.741 37.828 174.896 36.9822 173.854 36.9822C172.812 36.9822 171.967 37.828 171.967 38.8714C171.967 39.9148 172.812 40.7607 173.854 40.7607Z" fill="#E6E6E6"/>
<path d="M169.214 39.8465L164.909 40.614L164.929 40.7302L169.235 39.9627L169.214 39.8465Z" fill="white"/>
<path d="M167.297 61.0222L162.529 58.412L159.847 45.0413L159.86 45.0466L158.874 40.1695L160.348 38.0447L163.181 38.93L166.246 43.1822L167.015 47.5147L167.058 47.2331L167.069 47.8233L167.099 49.4973L167.297 61.0222Z" fill="#F2F2F2"/>
<path d="M162.587 58.4286L162.473 58.398L164.825 49.5702L162.132 46.0164L162.226 45.9451L164.954 49.5448L162.587 58.4286Z" fill="#CCCCCC"/>
<path d="M163.915 53.3888L163.809 53.4401L167.549 61.2137L167.655 61.1625L163.915 53.3888Z" fill="#CCCCCC"/>
<path opacity="0.2" d="M178.991 44.2618L178.548 46.7113L178.526 46.7137L176.543 58.1648L167.697 60.9987L167.644 61.0241L167.608 60.9503L162.625 58.2239L162.568 58.2085L162.598 58.0928L159.941 44.8516L159.955 44.8569L159.661 43.4034L159.881 43.0863L160.561 42.1063L163.391 42.9919L166.458 47.2427L166.503 47.4953L166.825 49.309L166.954 50.0376L167.227 51.5767L167.487 49.923L167.58 49.3279L167.815 47.8331L170.233 45.2353L171.308 44.9762L172.056 44.7955L173.086 44.5475C172.767 44.3532 172.512 44.0684 172.355 43.7291C172.197 43.3898 172.144 43.0114 172.201 42.6417C172.259 42.2721 172.425 41.9279 172.678 41.6527C172.932 41.3776 173.261 41.184 173.624 41.0964C173.987 41.0087 174.369 41.031 174.719 41.1605C175.07 41.29 175.374 41.5207 175.594 41.8235C175.813 42.1263 175.938 42.4876 175.952 42.8614C175.966 43.2353 175.869 43.6049 175.673 43.9235L178.312 43.2871L178.963 44.2216L178.991 44.2618Z" fill="black"/>
<path d="M167.579 54.1502H160.973L159.086 44.8221L160.561 42.6966L163.391 43.5821L166.458 47.8329L167.579 54.1502Z" fill="#E6E6E6"/>
<path d="M176.661 63.0061L167.815 65.8399L162.743 63.0651L160.059 49.6928L167.166 52.5561L167.815 48.4234L170.233 45.8257L178.313 43.8775L179.669 45.8257L178.961 49.7223L176.661 63.0061Z" fill="#E6E6E6"/>
<path d="M174.066 45.4125C175.109 45.4125 175.953 44.5666 175.953 43.5232C175.953 42.4798 175.109 41.634 174.066 41.634C173.024 41.634 172.179 42.4798 172.179 43.5232C172.179 44.5666 173.024 45.4125 174.066 45.4125Z" fill="#E6E6E6"/>
<path d="M167.514 65.5829L162.746 62.9726L160.064 49.6019L160.077 49.6073L159.091 44.7301L160.565 42.6054L163.398 43.4907L166.463 47.7428L167.233 52.0754L167.275 51.7937L167.286 52.3839L167.316 54.0579L167.514 65.5829Z" fill="#F2F2F2"/>
<path d="M162.8 63.0802L162.686 63.0498L165.037 54.2218L162.344 50.668L162.438 50.5966L165.166 54.1966L162.8 63.0802Z" fill="#CCCCCC"/>
<path d="M164.127 58.0406L164.021 58.0919L167.762 65.8655L167.868 65.8143L164.127 58.0406Z" fill="#CCCCCC"/>
<path d="M241.579 124.772L230.61 127.133L228.369 116.329L232.497 110.779L236.212 110.071L240.341 114.263L241.579 124.772Z" fill="#CCCCCC"/>
<path d="M236.508 125.243H229.902L229.001 120.792L228.015 115.915L229.489 113.79L232.322 114.676L235.387 118.928L236.156 123.26L236.21 123.569L236.508 125.243Z" fill="#E6E6E6"/>
<path d="M247.595 122.646L239.987 123.532L241.344 113.85L244.41 111.075L247.064 111.724L248.834 115.798L247.595 122.646Z" fill="#CCCCCC"/>
<path d="M248.596 116.918L247.889 120.816L245.59 134.098L236.743 136.934L236.438 136.768L231.67 134.157L228.988 120.787L229.001 120.792L236.095 123.649L236.156 123.26L236.199 122.979L236.743 119.518L239.161 116.918L247.24 114.971L248.596 116.918Z" fill="#E6E6E6"/>
<path d="M242.995 116.506C244.037 116.506 244.882 115.66 244.882 114.617C244.882 113.574 244.037 112.728 242.995 112.728C241.953 112.728 241.108 113.574 241.108 114.617C241.108 115.66 241.953 116.506 242.995 116.506Z" fill="#E6E6E6"/>
<path d="M238.355 115.592L234.05 116.36L234.07 116.476L238.376 115.708L238.355 115.592Z" fill="white"/>
<path d="M236.438 136.768L231.67 134.157L228.988 120.787L229.001 120.792L228.015 115.915L229.489 113.79L232.322 114.676L235.387 118.928L236.156 123.26L236.199 122.979L236.21 123.569L236.24 125.243L236.438 136.768Z" fill="#F2F2F2"/>
<path d="M231.728 134.174L231.614 134.144L233.966 125.316L231.273 121.762L231.367 121.691L234.095 125.29L231.728 134.174Z" fill="#CCCCCC"/>
<path d="M233.056 129.134L232.95 129.186L236.69 136.959L236.796 136.908L233.056 129.134Z" fill="#CCCCCC"/>
<path d="M263.255 135.904H256.02L254.948 121.954H264.327L263.255 135.904Z" fill="#E6E6E6"/>
<path d="M264.461 127.588H254.814V129.734H264.461V127.588Z" fill="#F2F2F2"/>
<path d="M266.94 122.955L265.398 122.501L265.378 121.935L258.523 119.914L258.2 120.378L256.658 119.923L255.689 121.316L267 124.651L266.94 122.955Z" fill="#CCCCCC"/>
<path d="M40.0176 118.297L40.0107 118.344L39.9916 118.479L38.0281 132.584L26.0051 137L25.8167 136.91L19.0853 133.71L15.6047 120.34L15.3662 119.423L15.4388 119.395L30.3298 113.795L40.0088 118.292L40.0176 118.297Z" fill="#7FB77E"/>
<path d="M25.8167 136.91L19.0853 133.71L15.3662 119.423L15.4388 119.395L25.1403 123.492L25.8167 136.91Z" fill="#7FB77E"/>
<path opacity="0.2" d="M25.9855 136.747L20.8653 126.924L21.523 124.14L18.4258 120.489L18.1621 120.713L21.1459 124.23L18.917 133.67L19.2539 133.749L20.7436 127.44L25.6786 136.907L25.9855 136.747Z" fill="black"/>
<path d="M40.0176 118.47L39.9916 118.479L25.1403 123.665L15.6047 120.34L15.3662 119.423L15.4388 119.395L30.3298 113.795L40.0088 118.292L40.0107 118.344L40.0176 118.47Z" fill="#3F3D56"/>
<path d="M25.3997 123.925L22.3722 121.587L23.0641 118.99L31.7137 115.873L37.5955 116.219L39.9311 118.21L40.1039 118.73L25.3997 123.925Z" fill="#7FB77E"/>
<path d="M15.539 119.423L22.3722 119.163L26.0739 117.905L31.8453 115.873L32.9248 114.314L30.2315 113.832L15.539 119.423Z" fill="#7FB77E"/>
<path d="M29.1531 116.636L25.5902 117.888L25.7048 118.214L29.2677 116.963L29.1531 116.636Z" fill="#CCCCCC"/>
<path d="M9.64757 136.225H2.41189L1.33994 122.275H10.7195L9.64757 136.225Z" fill="#7FB77E"/>
<path d="M10.8535 127.908H1.20593V130.055H10.8535V127.908Z" fill="#E6E6E6"/>
<path d="M11.2555 121.47H9.64758L9.46883 120.933H2.32265L2.14391 121.47H0.535977L0 123.079H11.7915L11.2555 121.47Z" fill="#3F3D56"/>
<path d="M216.625 136.06H54.1987V136.597H216.625V136.06Z" fill="#3F3D56"/>
</g>
<defs>
<clipPath id="clip0_20_440">
<rect width="267" height="137" fill="white"/>
</clipPath>
</defs>
</svg>
