<svg width="188" height="152" viewBox="0 0 188 152" fill="none" xmlns="http://www.w3.org/2000/svg">
<g clip-path="url(#clip0_13_478)">
<path d="M107.1 134.471C105.8 132.645 104.04 131.31 101.828 130.81C99.8989 130.374 97.9151 130.448 95.9541 130.463L71.1576 130.655C69.0339 130.672 66.9977 132.517 67.0964 134.728C67.1943 136.92 68.8812 138.818 71.1576 138.8C78.4212 138.744 85.6849 138.688 92.9485 138.632C94.6609 138.618 96.3743 138.588 98.0869 138.593C98.4715 138.594 98.8544 138.615 99.2386 138.619C99.3317 138.62 99.3989 138.619 99.4464 138.617C99.4583 138.621 99.4683 138.624 99.4838 138.629C99.6842 138.684 99.8898 138.722 100.091 138.774C100.021 138.776 100.222 138.902 100.323 138.945C100.337 138.972 100.367 139.021 100.416 139.096C100.485 139.226 100.69 139.62 100.698 139.608C101.005 140.387 101.258 141.185 101.456 141.999C101.928 143.793 102.032 144.167 102.1 145.85C102.186 147.976 103.906 150.024 106.161 149.923C108.288 149.827 110.314 148.13 110.222 145.85C110.067 142.008 109.395 137.693 107.1 134.471Z" fill="#E6E6E6"/>
<path d="M72.6152 143.661C72.1494 140.831 71.6926 137.998 71.2178 135.17C70.736 132.3 69.7521 129.672 67.5252 127.789C66.9302 127.286 66.3132 126.816 65.6937 126.348C65.4758 126.183 65.2583 126.018 65.043 125.85C65.0301 125.84 65.022 125.834 65.0108 125.825C64.9871 125.804 64.9587 125.78 64.9206 125.748C63.9924 124.96 63.0956 124.137 62.2413 123.263C61.4827 122.486 60.7572 121.676 60.0648 120.833C59.8918 120.623 59.721 120.41 59.5525 120.196C59.5235 120.159 59.3673 119.957 59.2645 119.825C59.1688 119.692 58.9939 119.454 58.9645 119.412C58.7676 119.133 58.5742 118.851 58.3843 118.567C57.0908 116.623 55.9707 114.569 55.0371 112.428C54.9445 112.216 54.8541 112.003 54.7659 111.788C54.7423 111.722 54.7116 111.638 54.671 111.526C54.4829 111.007 54.2951 110.489 54.1231 109.964C53.7576 108.849 53.4434 107.717 53.1804 106.569C53.0504 106.003 52.9334 105.433 52.8293 104.86C52.7756 104.566 52.7254 104.271 52.6787 103.975C52.671 103.926 52.6254 103.607 52.5985 103.427C52.5787 103.246 52.5418 102.925 52.5368 102.875C52.5071 102.577 52.4807 102.279 52.4576 101.98C52.4057 101.308 52.3706 100.635 52.3523 99.961C52.3211 98.7628 52.3425 97.5646 52.4165 96.3666C52.4586 95.6934 52.5186 95.022 52.5925 94.3519C52.5969 94.3107 52.6004 94.278 52.6036 94.2485C52.6081 94.2185 52.6133 94.1845 52.6195 94.1422C52.6741 93.7719 52.7317 93.4021 52.796 93.0334C53.0396 91.6336 53.3564 90.2475 53.7451 88.8811C53.9291 88.2348 54.129 87.5938 54.3448 86.958C54.441 86.6758 54.5402 86.3946 54.6425 86.1145C54.6358 86.1326 54.9426 85.3469 54.9467 85.3205C56.1637 82.4369 58.1544 79.8082 58.1571 76.5325C58.159 74.3147 56.2879 72.1901 54.096 72.2926C53.0031 72.3339 51.9689 72.799 51.2113 73.5899C50.4537 74.3808 50.0319 75.4358 50.0348 76.5325C50.0348 76.5823 50.0345 76.6248 50.0344 76.666C50.014 76.7351 49.9969 76.7927 49.9815 76.8436C49.7442 77.3608 49.4534 77.8523 49.1929 78.3566C48.4795 79.7371 47.8706 81.1628 47.2922 82.6095C46.3453 84.9653 45.6205 87.4049 45.1273 89.8963C44.0552 95.355 43.972 100.963 44.8816 106.451C46.4562 116.076 51.6489 125.289 58.868 131.482C59.4945 132.019 60.1362 132.538 60.7841 133.047C61.0521 133.258 61.3224 133.464 61.5941 133.67C61.7225 133.767 62.2544 134.187 62.0205 133.984C62.5236 134.414 62.7354 134.631 62.8647 134.948C62.8834 135.021 62.909 135.121 62.9435 135.256C63.0346 135.614 63.1211 135.971 63.193 136.334C63.8214 139.503 64.2581 142.725 64.783 145.915C65.1438 148.107 67.8345 149.533 69.7788 148.876C72.0418 148.112 73.0017 146.009 72.6152 143.661Z" fill="#E6E6E6"/>
<path d="M107.511 151.881C105.805 151.885 104.168 151.211 102.957 150.006C101.747 148.802 101.062 147.164 101.054 145.454V140.809C96.2035 141.353 79.5948 141.227 74.8339 140.46V145.268C74.8211 146.977 74.1352 148.612 72.9256 149.816C71.716 151.02 70.0809 151.695 68.3766 151.695C66.6724 151.695 65.0373 151.02 63.8277 149.816C62.6181 148.612 61.9321 146.977 61.9193 145.268V135.827C55.4712 132.235 50.0957 126.982 46.3477 120.611C42.5997 114.24 40.6149 106.982 40.5983 99.5849C40.5983 86.9016 46.3303 75.0699 56.3248 67.1236C62.8231 61.9395 70.7184 58.8217 78.9968 58.1709C80.1205 58.0825 81.251 58.0377 82.3571 58.0377C86.2539 58.0377 103.835 58.6414 108.246 59.914L118.305 49.9054C118.453 49.7563 118.642 49.6547 118.847 49.6136C119.053 49.5725 119.266 49.5937 119.46 49.6746C119.655 49.7524 119.822 49.8876 119.939 50.0623C120.056 50.2371 120.118 50.4432 120.116 50.6537V52.245L122.074 50.2999C122.222 50.1506 122.411 50.0489 122.616 50.0077C122.822 49.9665 123.035 49.9878 123.228 50.0687C123.424 50.1465 123.591 50.2817 123.708 50.4565C123.825 50.6313 123.887 50.8376 123.885 51.0482V68.831C128.932 73.3938 132.779 79.1347 135.085 85.5449C137.39 91.9551 138.083 98.8367 137.103 105.58C136.122 112.323 133.497 118.719 129.462 124.202C125.427 129.685 120.105 134.084 113.968 137.011V145.454C113.96 147.164 113.275 148.802 112.065 150.006C110.854 151.211 109.217 151.885 107.511 151.881ZM101.561 140.231V145.454C101.574 147.028 102.207 148.533 103.321 149.641C104.435 150.75 105.941 151.372 107.511 151.372C109.081 151.372 110.587 150.75 111.701 149.641C112.815 148.533 113.448 147.028 113.461 145.454V136.69L113.605 136.621C120.491 133.344 126.336 128.218 130.492 121.812C135.788 113.637 137.991 103.83 136.701 94.1678C135.412 84.5052 130.715 75.6249 123.462 69.134L123.377 69.058V51.0482C123.379 50.9388 123.348 50.8314 123.287 50.7406C123.226 50.6498 123.139 50.5798 123.037 50.5402C122.936 50.4969 122.824 50.4852 122.716 50.5067C122.608 50.5282 122.509 50.5818 122.432 50.6607L119.608 53.4657V50.6537C119.61 50.5443 119.578 50.4369 119.517 50.3461C119.456 50.2553 119.369 50.1854 119.268 50.1458C119.166 50.1025 119.054 50.0909 118.946 50.1125C118.838 50.1342 118.739 50.188 118.662 50.2671L108.388 60.49L108.242 60.4441C104.142 59.157 86.2835 58.5468 82.3571 58.5468C81.2642 58.5468 80.147 58.591 79.0367 58.6784C70.8589 59.3213 63.0595 62.4012 56.6402 67.5224C46.7679 75.3716 41.1059 87.058 41.1059 99.5849C41.1227 106.916 43.0969 114.11 46.8232 120.418C50.5496 126.725 55.8922 131.918 62.296 135.455L62.427 135.527V145.268C62.4401 146.842 63.0727 148.347 64.187 149.455C65.3014 150.563 66.8072 151.185 68.3766 151.185C69.946 151.185 71.4519 150.563 72.5662 149.455C73.6806 148.347 74.3132 146.842 74.3263 145.268V139.85L74.627 139.907C78.9054 140.714 96.9207 140.842 101.275 140.269L101.561 140.231Z" fill="#3F3D56"/>
<path d="M73.1003 30.3192L44.9919 38.79C44.0979 39.0605 43.3475 39.6759 42.9056 40.5008C42.4637 41.3258 42.3665 42.2929 42.6352 43.1898C42.904 44.0866 43.5167 44.8398 44.3389 45.2838C45.1611 45.7279 46.1254 45.8265 47.02 45.558L71.6179 38.1435L72.1332 37.9882C72.2375 35.3255 72.9578 32.7235 74.2374 30.3879C74.0768 30.3155 73.9052 30.2707 73.7297 30.2556C73.5178 30.235 73.3039 30.2566 73.1003 30.3192Z" fill="#7FB77E"/>
<path d="M46.5339 47.364C46.1608 47.3631 45.7974 47.2446 45.4951 47.0253C45.1928 46.806 44.9668 46.497 44.8491 46.1419L43.0914 40.8232C43.018 40.6011 42.989 40.3667 43.0059 40.1333C43.0229 39.8999 43.0855 39.6722 43.1902 39.4631C43.2949 39.254 43.4397 39.0676 43.6163 38.9146C43.7928 38.7616 43.9977 38.645 44.2192 38.5715L67.0966 30.9686C67.318 30.8949 67.5518 30.8658 67.7845 30.8828C68.0172 30.8997 68.2443 30.9625 68.4528 31.0675C68.6613 31.1725 68.8472 31.3176 68.9998 31.4946C69.1523 31.6717 69.2686 31.8771 69.342 32.0992L71.0997 37.4179C71.246 37.8553 71.2166 38.3327 71.018 38.7488C70.8193 39.165 70.4669 39.4873 70.0354 39.6474C70.0143 39.6553 69.9929 39.6628 69.9714 39.6699L47.0946 47.2725C46.9138 47.3329 46.7245 47.3638 46.5339 47.364Z" fill="#2F2E41"/>
<path d="M89.3779 20.8735C84.7606 20.8753 80.3252 22.6787 77.0104 25.902C73.6957 29.1253 71.7617 33.5156 71.6179 38.1435C71.6128 38.3242 71.6104 38.5075 71.6104 38.6908C71.6104 42.2147 72.6524 45.6594 74.6047 48.5895C76.557 51.5195 79.332 53.8032 82.5786 55.1517C85.8252 56.5003 89.3976 56.8531 92.8442 56.1656C96.2908 55.4781 99.4566 53.7812 101.941 51.2894C104.426 48.7976 106.119 45.6229 106.804 42.1667C107.49 38.7105 107.138 35.1281 105.793 31.8724C104.448 28.6167 102.171 25.8341 99.2491 23.8763C96.3272 21.9185 92.892 20.8735 89.3779 20.8735ZM89.3779 55.9989C84.8018 55.9941 80.4144 54.1691 77.1786 50.9242C73.9427 47.6793 72.1228 43.2797 72.118 38.6908C72.118 38.454 72.1231 38.2199 72.1332 37.9882C72.2707 34.5978 73.3989 31.3227 75.3777 28.5702C77.3564 25.8176 80.0983 23.7091 83.2625 22.5067C86.4267 21.3043 89.8736 21.0611 93.1745 21.8074C96.4754 22.5537 99.4847 24.2566 101.828 26.7042C104.172 29.1519 105.746 32.2363 106.356 35.574C106.965 38.9118 106.583 42.3555 105.256 45.477C103.929 48.5986 101.717 51.2602 98.8939 53.1309C96.0708 55.0017 92.7617 55.999 89.3779 55.9989Z" fill="#3F3D56"/>
<path d="M104.353 38.6907C104.353 42.6736 102.776 46.4933 99.9672 49.3096C97.1587 52.1259 93.3496 53.7081 89.3779 53.7081C85.4061 53.7081 81.597 52.1259 78.7886 49.3096C75.9801 46.4933 74.4023 42.6736 74.4023 38.6907C74.4023 38.2148 74.4251 37.7464 74.4683 37.2832C74.8292 33.4393 76.6525 29.8825 79.5597 27.3513C82.4669 24.82 86.2346 23.5088 90.0805 23.69C93.9263 23.8711 97.5549 25.5307 100.213 28.324C102.871 31.1173 104.353 34.8299 104.353 38.6907Z" fill="#E6E6E6"/>
<path d="M93.8375 39.6885C93.4745 39.2099 92.997 38.8309 92.4492 38.5864C91.7735 38.3008 91.0757 38.071 90.3627 37.8992V33.8114C91.4587 33.9771 92.4865 34.447 93.3299 35.168L94.1574 33.399C93.6815 32.9739 93.1351 32.6353 92.543 32.3987C91.8868 32.1322 91.1979 31.955 90.4947 31.8718V29.8H88.5784V31.8922C87.8384 31.9756 87.1246 32.2159 86.4844 32.5973C85.906 32.9405 85.4192 33.4191 85.0654 33.9921C84.7278 34.5513 84.5529 35.194 84.5604 35.8476C84.5274 36.556 84.732 37.2549 85.1416 37.833C85.5186 38.3334 86.0165 38.7294 86.5883 38.9835C87.2748 39.2775 87.9847 39.5133 88.7104 39.6885V43.6058C87.4171 43.5079 86.1849 43.0149 85.1797 42.1931L84.3523 43.9647C84.9143 44.4306 85.5535 44.7941 86.2407 45.0388C86.9937 45.309 87.7804 45.4735 88.5784 45.5275V47.5815H90.4947V45.4893C91.5592 45.3727 92.5573 44.9137 93.3401 44.181C93.6848 43.8495 93.9571 43.4498 94.1397 43.0073C94.3224 42.5648 94.4114 42.0891 94.4011 41.6102C94.4329 40.9245 94.2345 40.2478 93.8375 39.6885ZM88.7104 37.4665C88.2436 37.3245 87.8096 37.0909 87.4336 36.7792C87.2847 36.6463 87.1669 36.482 87.0888 36.298C87.0107 36.1141 86.9742 35.9151 86.9819 35.7153C86.968 35.2619 87.1341 34.8216 87.4438 34.491C87.7871 34.1441 88.23 33.9136 88.7104 33.8317V37.4665ZM91.5659 42.8829C91.2421 43.2159 90.8204 43.4362 90.3627 43.5116V40.1416C90.8002 40.2593 91.2095 40.4645 91.5659 40.7448C91.701 40.8605 91.8084 41.0053 91.88 41.1683C91.9516 41.3314 91.9857 41.5085 91.9796 41.6866C91.9972 42.1234 91.8494 42.5508 91.5659 42.8829Z" fill="#7FB77E"/>
<path d="M47.3497 68.92C46.9574 68.9193 46.5762 68.7889 46.2652 68.5489C45.9543 68.3088 45.7311 67.9726 45.6301 67.5924L44.6731 63.9602C44.5534 63.5037 44.619 63.0182 44.8558 62.6101C45.0925 62.2021 45.481 61.9049 45.9359 61.7837L76.1257 53.7838C76.5813 53.6646 77.0654 53.7312 77.4722 53.969C77.8789 54.2068 78.1752 54.5965 78.2962 55.0528L79.1068 58.13L78.955 58.1418C71.2122 58.7455 63.8039 61.5606 57.6066 66.254L57.5626 66.2754L47.8005 68.8613C47.6534 68.9003 47.5019 68.92 47.3497 68.92Z" fill="#2F2E41"/>
<path d="M42.3497 86.861C38.8083 86.3363 35.4213 85.0521 32.4197 83.0959C30.9326 82.1275 29.5559 80.9984 28.3143 79.7289C27.0889 78.4755 25.9166 77.0509 25.3096 75.3817C24.7257 73.8374 24.7558 72.127 25.3937 70.6043C26.023 69.0909 27.225 67.8895 28.7362 67.2634C30.2565 66.6555 32.0934 66.5904 33.5729 67.2563C34.278 67.5662 34.8881 68.0586 35.3406 68.6831C35.551 68.971 35.7068 69.2953 35.8001 69.6397C35.8868 69.9518 35.8947 70.2806 35.8231 70.5965C35.7363 70.9119 35.5833 71.205 35.3743 71.4563C35.1653 71.7075 34.9052 71.911 34.6114 72.0532C33.9647 72.3859 33.2639 72.6002 32.5422 72.686C31.8162 72.7853 30.7734 72.8756 30.1897 72.2913C30.0696 72.1756 29.9751 72.0359 29.9124 71.8813C29.8685 71.7628 29.8535 71.6356 29.8687 71.5101C29.8601 71.5654 29.9039 71.3899 29.9014 71.3969C29.8921 71.4228 29.8522 71.4861 29.909 71.3889C29.9267 71.3569 29.9465 71.326 29.9682 71.2965C29.9489 71.3215 29.9065 71.3633 29.9822 71.2917C30.0447 71.2231 30.125 71.1733 30.2142 71.148C30.2494 71.1377 30.285 71.1296 30.3202 71.1199C30.4098 71.0954 30.231 71.1213 30.3226 71.1183C30.3579 71.1172 30.3937 71.1181 30.4289 71.1165C30.5188 71.1124 30.3403 71.0919 30.4264 71.1136C30.4598 71.122 30.493 71.1303 30.5259 71.1407C30.5975 71.1633 30.4752 71.088 30.5237 71.1444C30.5806 71.2104 30.464 71.0801 30.5286 71.144C30.5608 71.1757 30.5911 71.2092 30.6194 71.2444C30.7315 71.3554 30.8826 71.4176 31.0401 71.4176C31.1976 71.4176 31.3488 71.3554 31.4608 71.2444C31.5691 71.1308 31.6295 70.9797 31.6295 70.8225C31.6295 70.6654 31.5691 70.5143 31.4608 70.4006C30.8742 69.6713 29.7153 69.8515 29.1218 70.4679C28.3649 71.254 28.6646 72.4999 29.4009 73.1858C30.2344 73.9623 31.4148 74.0163 32.487 73.8861C33.393 73.799 34.276 73.5488 35.0935 73.1474C35.9058 72.7472 36.541 72.059 36.8763 71.216C37.0277 70.7661 37.0821 70.2891 37.0359 69.8166C36.9896 69.3441 36.8439 68.8868 36.6082 68.475C35.6616 66.6904 33.7016 65.7755 31.7642 65.617C30.7667 65.5386 29.7636 65.6594 28.813 65.9724C27.8624 66.2853 26.9831 66.7842 26.2261 67.4401C24.7668 68.7575 23.8683 70.5868 23.7162 72.5499C23.5471 74.5851 24.3345 76.5616 25.4826 78.2041C26.6845 79.873 28.1188 81.3604 29.7416 82.6211C32.9142 85.1611 36.6357 86.9211 40.6083 87.7603C41.0808 87.8581 41.5558 87.9419 42.0334 88.0116C42.1854 88.0486 42.3457 88.026 42.4816 87.9486C42.6176 87.8712 42.719 87.7447 42.7653 87.5949C42.8061 87.4424 42.7854 87.2799 42.7076 87.1425C42.6298 87.0052 42.5013 86.904 42.3497 86.861Z" fill="#3F3D56"/>
<path d="M99.0499 60.9303C93.8612 60.8568 88.6889 60.9889 83.533 61.3264C81.7706 61.4418 80.2458 62.0664 80.2458 63.1163C80.2458 63.9941 81.7585 65.0224 83.533 64.9062C88.6863 64.5687 93.8586 64.4366 99.0499 64.51C103.282 64.5699 103.28 60.9901 99.0499 60.9303Z" fill="#CCCCCC"/>
<path d="M91.3809 64.3327C90.8202 64.3327 77.6477 64.3117 77.6477 62.4871C77.6477 60.6626 90.8202 60.6416 91.3809 60.6416C91.9417 60.6416 105.114 60.6626 105.114 62.4871C105.114 64.3117 91.9417 64.3327 91.3809 64.3327ZM78.1628 62.4871C78.5233 63.0403 83.3652 63.8236 91.3809 63.8236C99.3967 63.8236 104.239 63.0403 104.599 62.4871C104.239 61.934 99.3967 61.1507 91.3809 61.1507C83.3652 61.1507 78.5233 61.934 78.1628 62.4871Z" fill="#3F3D56"/>
<path d="M133.174 112.299C136.09 112.218 139.719 112.117 142.515 110.069C143.347 109.434 144.031 108.624 144.519 107.696C145.006 106.768 145.286 105.745 145.337 104.697C145.394 103.08 144.812 101.668 143.696 100.723C142.236 99.4854 140.104 99.1952 137.806 99.8724L140.187 82.4248L138.439 82.1846L135.64 102.697L137.1 102.025C138.792 101.247 141.114 100.851 142.558 102.074C142.912 102.394 143.188 102.791 143.365 103.235C143.541 103.679 143.613 104.158 143.574 104.635C143.532 105.415 143.322 106.176 142.959 106.867C142.597 107.558 142.09 108.163 141.474 108.64C139.298 110.234 136.406 110.439 133.125 110.531L133.174 112.299Z" fill="#3F3D56"/>
<path d="M128.341 83.9295H118.84V85.6985H128.341V83.9295Z" fill="#3F3D56"/>
<path d="M51.6491 77.0563C51.2262 77.055 50.8176 76.9026 50.4965 76.6266C50.1753 76.3507 49.9627 75.969 49.8967 75.5501L49.3168 71.8387C49.2443 71.3719 49.3595 70.8953 49.637 70.5136C49.9145 70.1319 50.3318 69.8762 50.7971 69.8025L81.6445 64.9556C82.11 64.883 82.5851 64.9985 82.9658 65.2768C83.3464 65.5551 83.6014 65.9735 83.6748 66.4401L84.2547 70.1516C84.3272 70.6184 84.212 71.095 83.9345 71.4767C83.657 71.8584 83.2398 72.1141 82.7745 72.1878L51.9271 77.0346C51.8351 77.049 51.7422 77.0563 51.6491 77.0563Z" fill="#2F2E41"/>
<path d="M38.8829 33.5612C46.0322 33.5612 51.8278 27.7494 51.8278 20.5801C51.8278 13.4108 46.0322 7.59897 38.8829 7.59897C31.7336 7.59897 25.9379 13.4108 25.9379 20.5801C25.9379 27.7494 31.7336 33.5612 38.8829 33.5612Z" fill="#7FB77E"/>
<path d="M46.2121 23.9389C46.6258 23.7938 47.0038 23.5615 47.3205 23.2577C47.5301 23.0411 47.6899 22.7812 47.7888 22.4961C47.8876 22.2111 47.9231 21.9078 47.8928 21.6076C47.8752 21.3936 47.8085 21.1865 47.6979 21.0027C47.5873 20.8188 47.4358 20.6631 47.2552 20.5477C46.7867 20.2588 46.1677 20.2697 45.5427 20.5602L45.4705 15.493L44.963 15.5003L45.0478 21.4573L45.4342 21.2032C45.8822 20.909 46.526 20.6956 46.9892 20.9813C47.1038 21.057 47.1994 21.1581 47.2687 21.2768C47.3379 21.3955 47.3789 21.5287 47.3885 21.6659C47.4098 21.8896 47.3829 22.1152 47.3095 22.3276C47.236 22.5399 47.1179 22.7338 46.963 22.8962C46.4127 23.4437 45.5982 23.6272 44.6686 23.795L44.7586 24.2959C45.2528 24.2207 45.7392 24.1012 46.2121 23.9389Z" fill="#2F2E41"/>
<path d="M50.6977 15.1374L47.9944 15.5479L48.0704 16.0512L50.7737 15.6406L50.6977 15.1374Z" fill="#2F2E41"/>
<path d="M42.165 16.4329L39.4617 16.8435L39.5377 17.3467L42.241 16.9362L42.165 16.4329Z" fill="#2F2E41"/>
<path d="M47.4375 76.8294C46.972 76.8284 46.5178 76.6852 46.1353 76.419C45.7529 76.1528 45.4604 75.7761 45.2967 75.3391L36.3715 51.3701C35.2806 48.4305 35.3971 45.1769 36.6954 42.3233C37.9937 39.4697 40.3678 37.249 43.2968 36.1485L50.554 33.4311C50.8347 33.3253 51.1334 33.2762 51.433 33.2867C51.7326 33.2971 52.0272 33.3668 52.2998 33.4919C52.5718 33.6137 52.8168 33.7887 53.0206 34.0066C53.2243 34.2245 53.3827 34.4809 53.4866 34.7609L70.0197 66.0642C70.127 66.3465 70.1776 66.6473 70.1686 66.9492C70.1596 67.2512 70.0911 67.5484 69.9671 67.8237C69.8431 68.099 69.666 68.347 69.446 68.5535C69.2261 68.7599 68.9676 68.9207 68.6854 69.0265L48.2359 76.6838C47.9806 76.7799 47.7102 76.8292 47.4375 76.8294Z" fill="#2F2E41"/>
<path d="M48.3522 34.2555L64.7565 56.2536L53.6564 34.4864C53.5647 34.2324 53.424 33.999 53.2424 33.7996C53.0608 33.6001 52.8417 33.4385 52.5978 33.324C52.3539 33.2094 52.0898 33.1442 51.8208 33.132C51.5517 33.1198 51.2828 33.1609 51.0296 33.2529L48.3522 34.2555Z" fill="#E6E6E6"/>
<path d="M74.3263 50.9617L45.0364 49.0697C44.5747 49.0399 44.1234 48.9192 43.7083 48.7145C43.2931 48.5098 42.9222 48.2251 42.6168 47.8766C42.3114 47.5282 42.0774 47.1228 41.9282 46.6836C41.779 46.2445 41.7175 45.7802 41.7472 45.3172C41.777 44.8543 41.8973 44.4017 42.1015 43.9854C42.3056 43.5691 42.5895 43.1971 42.937 42.8909C43.2845 42.5846 43.6888 42.3499 44.1267 42.2003C44.5646 42.0507 45.0276 41.989 45.4893 42.0188L74.7792 43.9107C74.9954 43.9246 75.2068 43.9811 75.4012 44.077C75.5956 44.1729 75.7693 44.3062 75.9124 44.4694C76.0554 44.6326 76.165 44.8224 76.2349 45.0281C76.3047 45.2337 76.3335 45.4512 76.3196 45.668L76.0788 49.417C76.0507 49.8549 75.8502 50.2636 75.5216 50.5533C75.1929 50.843 74.763 50.9899 74.3263 50.9617Z" fill="#7FB77E"/>
<path d="M66.4996 52.1746C66.4609 52.1746 66.4222 52.1734 66.3833 52.1709L42.332 50.6173C42.0992 50.6023 41.8715 50.5415 41.6622 50.4382C41.4528 50.335 41.2657 50.1914 41.1117 50.0157C40.9576 49.84 40.8396 49.6355 40.7644 49.414C40.6891 49.1925 40.6581 48.9584 40.6731 48.7249L41.0844 42.3213C41.0994 42.0878 41.1601 41.8596 41.2631 41.6496C41.3661 41.4396 41.5093 41.2521 41.6845 41.0976C41.8598 40.9431 42.0637 40.8248 42.2846 40.7494C42.5054 40.6739 42.739 40.6429 42.9718 40.6579L67.023 42.2113C67.493 42.2422 67.9317 42.4588 68.2426 42.8136C68.5536 43.1684 68.7116 43.6324 68.6818 44.1038L68.2706 50.5075C68.2479 50.8506 68.127 51.1799 67.9223 51.4558C67.7176 51.7317 67.4379 51.9425 67.1167 52.0629C66.9193 52.1369 66.7103 52.1747 66.4996 52.1746Z" fill="#2F2E41"/>
<path d="M38.7345 11.9479C40.4375 10.4791 42.776 11.793 44.729 11.563C46.5974 11.3429 48.0727 9.66228 48.4496 7.87678C48.8893 5.79369 47.8111 3.70674 46.2219 2.40797C44.4813 0.985501 42.1729 0.577144 39.9854 0.840312C37.4782 1.14193 35.1853 2.31388 33.1279 3.73142C31.142 5.0573 29.3157 6.60917 27.6855 8.35605C26.2257 9.97275 24.989 11.8998 24.594 14.0753C24.2351 16.0524 24.5092 18.2433 25.6747 19.9181C26.2927 20.7766 27.1209 21.4608 28.0794 21.9048C29.0788 22.3969 30.1449 22.7488 31.1132 23.3052C32.5771 24.1465 34 25.8909 33.5414 27.7063C33.4431 28.1028 33.2491 28.4691 32.9764 28.7727C32.6488 29.1374 32.0579 28.6555 32.3864 28.2899C32.9633 27.6477 32.9405 26.7912 32.6331 26.0245C32.2675 25.1605 31.6201 24.4467 30.7971 23.9999C29.7836 23.4188 28.6646 23.0601 27.6258 22.5308C26.6315 22.0473 25.7685 21.3301 25.1101 20.4402C23.8668 18.7076 23.4949 16.4527 23.7769 14.3668C24.082 12.1095 25.2386 10.0583 26.6884 8.33934C28.2662 6.46868 30.2043 4.88521 32.1843 3.46268C34.3088 1.93629 36.6559 0.645836 39.2532 0.179099C41.5047 -0.22549 43.9451 0.0236004 45.9139 1.25397C47.7516 2.40244 49.1608 4.37803 49.301 6.58557C49.3513 7.58999 49.1338 8.58971 48.6709 9.48186C48.208 10.374 47.5164 11.1263 46.6673 11.6615C45.796 12.1843 44.783 12.4196 43.7712 12.3343C42.6895 12.2648 41.6067 11.9327 40.5181 12.0249C40.0255 12.0549 39.5561 12.2451 39.181 12.5667C38.8089 12.8876 38.3655 12.2661 38.7345 11.9479Z" fill="#2F2E41"/>
<path d="M187.698 152H0.302203C0.2222 152 0.145555 151.968 0.0890665 151.911C0.0325778 151.854 0.000854492 151.777 0.000854492 151.697C0.000854492 151.617 0.0325778 151.54 0.0890665 151.483C0.145555 151.426 0.2222 151.394 0.302203 151.394H187.698C187.778 151.394 187.855 151.426 187.911 151.483C187.968 151.539 188 151.617 188 151.697C188 151.777 187.968 151.854 187.911 151.911C187.855 151.968 187.778 152 187.698 152Z" fill="#3F3D56"/>
</g>
<defs>
<clipPath id="clip0_13_478">
<rect width="188" height="152" fill="white"/>
</clipPath>
</defs>
</svg>
