<svg width="193" height="36" viewBox="0 0 193 36" fill="none" xmlns="http://www.w3.org/2000/svg">
<path d="M35.4936 0.872L28.4736 26H22.5336L17.8176 8.108L12.8856 26L6.98164 26.036L0.213639 0.872H5.61364L10.0416 20.384L15.1536 0.872H20.7696L25.5936 20.276L30.0576 0.872H35.4936ZM37.8485 15.956C37.8485 13.94 38.2445 12.152 39.0365 10.592C39.8525 9.032 40.9445 7.832 42.3125 6.992C43.7045 6.152 45.2525 5.732 46.9565 5.732C48.4445 5.732 49.7405 6.032 50.8445 6.632C51.9725 7.232 52.8725 7.988 53.5445 8.9V6.056H58.6205V26H53.5445V23.084C52.8965 24.02 51.9965 24.8 50.8445 25.424C49.7165 26.024 48.4085 26.324 46.9205 26.324C45.2405 26.324 43.7045 25.892 42.3125 25.028C40.9445 24.164 39.8525 22.952 39.0365 21.392C38.2445 19.808 37.8485 17.996 37.8485 15.956ZM53.5445 16.028C53.5445 14.804 53.3045 13.76 52.8245 12.896C52.3445 12.008 51.6965 11.336 50.8805 10.88C50.0645 10.4 49.1885 10.16 48.2525 10.16C47.3165 10.16 46.4525 10.388 45.6605 10.844C44.8685 11.3 44.2205 11.972 43.7165 12.86C43.2365 13.724 42.9965 14.756 42.9965 15.956C42.9965 17.156 43.2365 18.212 43.7165 19.124C44.2205 20.012 44.8685 20.696 45.6605 21.176C46.4765 21.656 47.3405 21.896 48.2525 21.896C49.1885 21.896 50.0645 21.668 50.8805 21.212C51.6965 20.732 52.3445 20.06 52.8245 19.196C53.3045 18.308 53.5445 17.252 53.5445 16.028ZM71.535 26.324C69.903 26.324 68.439 26.036 67.143 25.46C65.847 24.86 64.815 24.056 64.047 23.048C63.303 22.04 62.895 20.924 62.823 19.7H67.899C67.995 20.468 68.367 21.104 69.015 21.608C69.687 22.112 70.515 22.364 71.499 22.364C72.459 22.364 73.203 22.172 73.731 21.788C74.283 21.404 74.559 20.912 74.559 20.312C74.559 19.664 74.223 19.184 73.551 18.872C72.903 18.536 71.859 18.176 70.419 17.792C68.931 17.432 67.707 17.06 66.747 16.676C65.811 16.292 64.995 15.704 64.299 14.912C63.627 14.12 63.291 13.052 63.291 11.708C63.291 10.604 63.603 9.596 64.227 8.684C64.875 7.772 65.787 7.052 66.963 6.524C68.163 5.996 69.567 5.732 71.175 5.732C73.551 5.732 75.447 6.332 76.863 7.532C78.279 8.708 79.059 10.304 79.203 12.32H74.379C74.307 11.528 73.971 10.904 73.371 10.448C72.795 9.968 72.015 9.728 71.031 9.728C70.119 9.728 69.411 9.896 68.907 10.232C68.427 10.568 68.187 11.036 68.187 11.636C68.187 12.308 68.523 12.824 69.195 13.184C69.867 13.52 70.911 13.868 72.327 14.228C73.767 14.588 74.955 14.96 75.891 15.344C76.827 15.728 77.631 16.328 78.303 17.144C78.999 17.936 79.359 18.992 79.383 20.312C79.383 21.464 79.059 22.496 78.411 23.408C77.787 24.32 76.875 25.04 75.675 25.568C74.499 26.072 73.119 26.324 71.535 26.324ZM89.7482 10.196V19.844C89.7482 20.516 89.9042 21.008 90.2162 21.32C90.5522 21.608 91.1042 21.752 91.8722 21.752H94.2122V26H91.0442C86.7962 26 84.6722 23.936 84.6722 19.808V10.196H82.2962V6.056H84.6722V1.124H89.7482V6.056H94.2122V10.196H89.7482ZM116.737 15.596C116.737 16.316 116.689 16.964 116.593 17.54H102.013C102.133 18.98 102.637 20.108 103.525 20.924C104.413 21.74 105.505 22.148 106.801 22.148C108.673 22.148 110.005 21.344 110.797 19.736H116.233C115.657 21.656 114.553 23.24 112.921 24.488C111.289 25.712 109.285 26.324 106.909 26.324C104.989 26.324 103.261 25.904 101.725 25.064C100.213 24.2 99.0252 22.988 98.1612 21.428C97.3212 19.868 96.9012 18.068 96.9012 16.028C96.9012 13.964 97.3212 12.152 98.1612 10.592C99.0012 9.032 100.177 7.832 101.689 6.992C103.201 6.152 104.941 5.732 106.909 5.732C108.805 5.732 110.497 6.14 111.985 6.956C113.497 7.772 114.661 8.936 115.477 10.448C116.317 11.936 116.737 13.652 116.737 15.596ZM111.517 14.156C111.493 12.86 111.025 11.828 110.113 11.06C109.201 10.268 108.085 9.872 106.765 9.872C105.517 9.872 104.461 10.256 103.597 11.024C102.757 11.768 102.241 12.812 102.049 14.156H111.517ZM136.184 21.212H126.176L124.52 26H119.228L128.264 0.835998H134.132L143.168 26H137.84L136.184 21.212ZM134.816 17.18L131.18 6.668L127.544 17.18H134.816ZM151.945 8.936C152.593 8.024 153.481 7.268 154.609 6.668C155.761 6.044 157.069 5.732 158.533 5.732C160.237 5.732 161.773 6.152 163.141 6.992C164.533 7.832 165.625 9.032 166.417 10.592C167.233 12.128 167.641 13.916 167.641 15.956C167.641 17.996 167.233 19.808 166.417 21.392C165.625 22.952 164.533 24.164 163.141 25.028C161.773 25.892 160.237 26.324 158.533 26.324C157.069 26.324 155.773 26.024 154.645 25.424C153.541 24.824 152.641 24.068 151.945 23.156V35.504H146.905V6.056H151.945V8.936ZM162.493 15.956C162.493 14.756 162.241 13.724 161.737 12.86C161.257 11.972 160.609 11.3 159.793 10.844C159.001 10.388 158.137 10.16 157.201 10.16C156.289 10.16 155.425 10.4 154.609 10.88C153.817 11.336 153.169 12.008 152.665 12.896C152.185 13.784 151.945 14.828 151.945 16.028C151.945 17.228 152.185 18.272 152.665 19.16C153.169 20.048 153.817 20.732 154.609 21.212C155.425 21.668 156.289 21.896 157.201 21.896C158.137 21.896 159.001 21.656 159.793 21.176C160.609 20.696 161.257 20.012 161.737 19.124C162.241 18.236 162.493 17.18 162.493 15.956ZM176.704 8.936C177.352 8.024 178.24 7.268 179.368 6.668C180.52 6.044 181.828 5.732 183.292 5.732C184.996 5.732 186.532 6.152 187.9 6.992C189.292 7.832 190.384 9.032 191.176 10.592C191.992 12.128 192.4 13.916 192.4 15.956C192.4 17.996 191.992 19.808 191.176 21.392C190.384 22.952 189.292 24.164 187.9 25.028C186.532 25.892 184.996 26.324 183.292 26.324C181.828 26.324 180.532 26.024 179.404 25.424C178.3 24.824 177.4 24.068 176.704 23.156V35.504H171.664V6.056H176.704V8.936ZM187.252 15.956C187.252 14.756 187 13.724 186.496 12.86C186.016 11.972 185.368 11.3 184.552 10.844C183.76 10.388 182.896 10.16 181.96 10.16C181.048 10.16 180.184 10.4 179.368 10.88C178.576 11.336 177.928 12.008 177.424 12.896C176.944 13.784 176.704 14.828 176.704 16.028C176.704 17.228 176.944 18.272 177.424 19.16C177.928 20.048 178.576 20.732 179.368 21.212C180.184 21.668 181.048 21.896 181.96 21.896C182.896 21.896 183.76 21.656 184.552 21.176C185.368 20.696 186.016 20.012 186.496 19.124C187 18.236 187.252 17.18 187.252 15.956Z" fill="#7FB77E"/>
</svg>
